<svg width="814.83564453125px" height="315.2px" xmlns="http://www.w3.org/2000/svg" viewBox="-157.41782226562498 -82.6 814.83564453125 315.2" style="background: rgb(245, 245, 245);" preserveAspectRatio="xMidYMid"><defs><linearGradient id="editing-gradient-gradient" x1="0" x2="1" y1="0.5" y2="0.5" gradientUnits="objectBoundingBox"><stop offset="0" stop-color="#333333"></stop><stop offset="1" stop-color="#a1a1a1"></stop></linearGradient></defs><g><g transform="translate(-45.10653734207153, 129.3400001525879)"><path d="M138.38-19.04L147.56-19.04L147.56 0L106.79 0L106.79-44.96L106.79-44.96Q106.79-47.79 104.96-49.95L104.96-49.95L104.96-49.95Q103.14-52.11 100.58-52.11L100.58-52.11L100.58-52.11Q95.72-52.11 94.43-47.32L94.43-47.32L94.43-47.32Q93.15-42.53 93.15-33.48L93.15-33.48L93.15 0L61.56 0L61.56-44.96L61.56-44.96Q61.56-47.79 59.74-49.95L59.74-49.95L59.74-49.95Q57.92-52.11 55.35-52.11L55.35-52.11L55.35-52.11Q50.49-52.11 49.21-47.32L49.21-47.32L49.21-47.32Q47.93-42.53 47.93-33.48L47.93-33.48L47.93-19.04L48.06-19.04L48.06 0L6.89 0L6.89-19.04L16.47-19.04L16.47-50.22L6.89-50.22L6.89-68.04L47.93-71.95L47.93-62.10L47.93-62.10Q52.52-67.50 58.32-69.73L58.32-69.73L58.32-69.73Q64.13-71.95 71.42-71.95L71.42-71.95L71.42-71.95Q86.40-71.95 90.99-59.27L90.99-59.27L90.99-59.27Q95.85-66.15 102.20-69.05L102.20-69.05L102.20-69.05Q108.54-71.95 116.64-71.95L116.64-71.95L116.64-71.95Q138.38-71.95 138.38-44.82L138.38-44.82L138.38-19.04ZM178.61 1.22L178.61 1.22Q171.99 1.22 166.46-1.42L166.46-1.42L166.46-1.42Q160.92-4.05 157.61-8.91L157.61-8.91L157.61-8.91Q154.31-13.77 154.31-20.25L154.31-20.25L154.31-20.25Q154.31-27.27 158.15-32.06L158.15-32.06L158.15-32.06Q162-36.86 168.35-39.22L168.35-39.22L168.35-39.22Q174.69-41.58 181.98-41.58L181.98-41.58L181.98-41.58Q190.62-41.58 198.59-39.02L198.59-39.02L198.59-41.98L198.59-41.98Q198.59-47.25 194.13-50.02L194.13-50.02L194.13-50.02Q189.68-52.79 182.12-52.79L182.12-52.79L182.12-52.79Q177.26-52.79 170.91-51.03L170.91-51.03L170.91-51.03Q164.56-49.28 160.38-46.71L160.38-46.71L158.49-47.52L158.49-66.69L158.49-66.69Q166.46-69.53 174.76-70.74L174.76-70.74L174.76-70.74Q183.06-71.95 190.22-71.95L190.22-71.95L190.22-71.95Q230.31-71.95 230.31-49.41L230.31-49.41L230.31-19.85L236.52-19.85L236.52 0L202.77 0L199.80-10.80L199.80-10.80Q196.97-5.27 190.96-2.03L190.96-2.03L190.96-2.03Q184.95 1.22 178.61 1.22L178.61 1.22ZM191.03-15.66L191.03-15.66Q193.19-15.66 195.48-16.40L195.48-16.40L195.48-16.40Q197.78-17.14 198.59-17.96L198.59-17.96L198.59-29.03L198.59-29.03Q197.64-29.16 195.41-29.77L195.41-29.77L195.41-29.77Q193.19-30.38 191.56-30.38L191.56-30.38L191.56-30.38Q188.06-30.38 185.96-28.22L185.96-28.22L185.96-28.22Q183.87-26.06 183.87-22.41L183.87-22.41L183.87-22.41Q183.87-19.71 185.83-17.69L185.83-17.69L185.83-17.69Q187.79-15.66 191.03-15.66L191.03-15.66ZM334.39-19.04L343.58-19.04L343.58 0L302.81 0L302.81-44.96L302.81-44.96Q302.81-47.79 300.98-49.95L300.98-49.95L300.98-49.95Q299.16-52.11 296.60-52.11L296.60-52.11L296.60-52.11Q291.74-52.11 290.45-47.32L290.45-47.32L290.45-47.32Q289.17-42.53 289.17-33.48L289.17-33.48L289.17-19.04L289.31-19.04L289.31 0L248.13 0L248.13-19.04L257.72-19.04L257.72-50.22L248.13-50.22L248.13-68.04L289.17-71.95L289.17-62.10L289.17-62.10Q293.76-67.50 299.56-69.73L299.56-69.73L299.56-69.73Q305.37-71.95 312.66-71.95L312.66-71.95L312.66-71.95Q334.39-71.95 334.39-44.82L334.39-44.82L334.39-19.04ZM375.30-77.49L375.30-77.49Q367.07-77.49 361.73-81.41L361.73-81.41L361.73-81.41Q356.40-85.32 356.40-92.61L356.40-92.61L356.40-92.61Q356.40-99.90 361.73-103.68L361.73-103.68L361.73-103.68Q367.07-107.46 375.44-107.46L375.44-107.46L375.44-107.46Q383.81-107.46 389.07-103.75L389.07-103.75L389.07-103.75Q394.34-100.04 394.34-92.61L394.34-92.61L394.34-92.61Q394.34-85.32 388.94-81.41L388.94-81.41L388.94-81.41Q383.54-77.49 375.30-77.49L375.30-77.49ZM399.60 0L351.00 0L351.00-19.85L359.51-19.85L359.51-50.22L351.00-50.22L351.00-66.42L391.10-70.61L391.10-19.85L399.60-19.85L399.60 0ZM446.45 1.22L446.45 1.22Q432.95 1.22 422.55-5.94L422.55-5.94L420.39 0L408.11 0L408.11-26.06L422.82-26.06L422.82-26.06Q423.63-21.06 427.48-17.08L427.48-17.08L427.48-17.08Q431.33-13.10 436.32-13.10L436.32-13.10L436.32-13.10Q438.21-13.10 439.63-14.18L439.63-14.18L439.63-14.18Q441.05-15.26 441.05-17.69L441.05-17.69L441.05-17.69Q441.05-20.12 438.28-22.07L438.28-22.07L438.28-22.07Q435.51-24.03 429.84-26.73L429.84-26.73L429.84-26.73Q423.09-30.11 418.77-32.87L418.77-32.87L418.77-32.87Q414.45-35.64 411.28-40.16L411.28-40.16L411.28-40.16Q408.11-44.69 408.11-51.03L408.11-51.03L408.11-51.03Q408.11-57.65 412.36-62.37L412.36-62.37L412.36-62.37Q416.61-67.09 423.63-69.53L423.63-69.53L423.63-69.53Q430.65-71.95 438.89-71.95L438.89-71.95L438.89-71.95Q449.69-71.95 458.87-66.29L458.87-66.29L460.49-70.61L471.42-70.61L471.42-49.55L458.73-49.55L458.73-49.55Q457.11-53.87 454.01-56.30L454.01-56.30L454.01-56.30Q450.90-58.73 446.72-58.73L446.72-58.73L446.72-58.73Q444.42-58.73 443.14-58.05L443.14-58.05L443.14-58.05Q441.86-57.38 441.86-55.62L441.86-55.62L441.86-55.62Q441.99-53.46 444.42-51.98L444.42-51.98L444.42-51.98Q446.85-50.49 452.52-48.06L452.52-48.06L452.52-48.06Q459.54-45.09 464.13-42.39L464.13-42.39L464.13-42.39Q468.72-39.69 472.16-34.76L472.16-34.76L472.16-34.76Q475.61-29.84 475.61-22.55L475.61-22.55L475.61-22.55Q475.61-14.85 471.56-9.52L471.56-9.52L471.56-9.52Q467.51-4.19 460.89-1.49L460.89-1.49L460.89-1.49Q454.28 1.22 446.45 1.22L446.45 1.22ZM488.43 0L488.43-19.85L496.80-19.85L496.80-80.59L488.43-80.59L488.43-98.55L528.53-102.87L528.53-60.35L528.53-60.35Q531.09-65.07 537.50-68.51L537.50-68.51L537.50-68.51Q543.92-71.95 551.75-71.95L551.75-71.95L551.75-71.95Q563.22-71.95 569.09-65.20L569.09-65.20L569.09-65.20Q574.97-58.46 574.97-46.30L574.97-46.30L574.97-19.85L583.34-19.85L583.34 0L543.24 0L543.24-43.07L543.24-43.07Q543.24-46.98 540.95-49.55L540.95-49.55L540.95-49.55Q538.65-52.11 535.68-52.11L535.68-52.11L535.68-52.11Q532.31-52.11 530.42-49.82L530.42-49.82L530.42-49.82Q528.53-47.52 528.53-43.61L528.53-43.61L528.53-19.85L534.87-19.85L534.87 0L488.43 0Z" fill="url(#editing-gradient-gradient)"></path></g></g><style>text {
  font-size: 64px;
  font-family: Arial Black;
  dominant-baseline: central;
  text-anchor: middle;
}</style></svg>