<?xml version='1.0' encoding='utf-8'?>
<svg xmlns="http://www.w3.org/2000/svg" data-name="Ebene 1" viewBox="0 0 512 512"> <defs> <style>.cls-1 { fill: url(#a); } .cls-1, .cls-2, .cls-3, .cls-4, .cls-5, .cls-6, .cls-7, .cls-8, .cls-9, .cls-10, .cls-11, .cls-12, .cls-13, .cls-14, .cls-15, .cls-16, .cls-17, .cls-18, .cls-19 { stroke-width: 0px; } .cls-2 { fill: #f49e7e; } .cls-3 { fill: #f2e5ba; } .cls-4 { fill: #767b69; } .cls-5 { fill: #2d4963; } .cls-6 { fill: #643e24; } .cls-7 { fill: #0a0b10; } .cls-8 { fill: #0b161a; } .cls-9 { fill: #d1b17a; } .cls-10 { fill: #dcb48b; } .cls-11 { fill: #dacf69; } .cls-12 { fill: #a5b7c4; } .cls-13 { fill: #858d7c; } .cls-14 { fill: #919caa; } .cls-15 { fill: #f2a211; } .cls-16 { fill: #f2a36d; } .cls-17 { fill: #f18a75; } .cls-18 { fill: #04232b; } .cls-19 { fill: #037c83; }</style> <linearGradient id="a" x1="198.89" x2="299.82" y1="113.53" y2="389.13" data-name="Unbenannter Verlauf 273" gradientUnits="userSpaceOnUse"> <stop stop-color="#fcf8e1" offset="0"/> <stop stop-color="#ecdda6" offset=".88"/> </linearGradient> </defs> <path class="cls-7" d="M379,389c0,1.61,1.24,10.26,1,10.75-2.49,5.11-9.49-7.41,1.5,14.75.83,1.67,1.65,3.34,2.5,5,.77,1.52,1.76,3.01,2.5,4.5.76,1.54,1.38,3.38,2,5-4.76-.13-9.91,1.13-14.75.5-.49-1.1-1-2.04-1.75-3-2.43-3.08-13.92-23.5-15.25-24l-23.5,2c-1.07,16.06-2.17,9.32-3.75,11.25-.37.46,1.77,6.64,2,7.75,1.45,6.89,3.01,13.74,5,20.5-4.4.55-8.76,1.71-13.25,1.5-.5-.26-1.19-3.98-1.75-5.5-2.27-6.18-3.7-12.45-6.5-18.5-.75-1.62-.53-3.8-2.25-5-9.06-.77-18.18-.87-27.25-1.5-46.41-3.22-92.9-5.42-139.25-9.5-1.18.45-8.32,19.15-9.75,22-.04.07-.73-.2-.5,1.5-3.19-.11-12.01.57-12.5-.75,2.22-5.46,3.86-11.1,5.5-16.75,1-3.43,2.85-6.84,4-10.25-1-3.13.45-6.59,1-9.75l193.75,11.5c2.55-26.82,4.84-53.67,7.25-80.5,7.02-78.25,13.12-156.58,18-235l1-11c1.2.14,2.18.22,3,1.25,6.53,103.71,14.04,207.56,22,311.25Z"/> <path class="cls-18" d="M354,76.5l-1,11c-13.2.02-30.75,4.56-43,5.5-.33.03-.67-.01-1,0,1.68-5.51-4.39-5.99-3.5-11,7.15-.87,46.08-5.79,48.5-5.5Z"/> <path class="cls-18" d="M206,95.5c.7,2.54-.12,7.22,0,9l-40,5.5c.42-3.09-.48-6.43.75-9.5,12.99-2.35,26.19-3.26,39.25-5Z"/> <path class="cls-19" d="M298.5,83c.43,8.47,1.58,17.02,1.5,25.5l-91,12.5c-.56-1.51-1.79-5.7-2-7-.21-1.29-.89-7.92-1-9.5-.12-1.78.7-6.46,0-9,7.99-1.06,16.01-2.42,24-3.5,3.66-.49,8.45-.49,12.25-1,.33-.04,1.17-.99,1.25-1,.85-.11,1.77-.4,2.5-.5.53-.07,4.35-.19,10.5-1,4.68-.62,9.34-1.4,14-2,9.33-1.19,18.67-2.34,28-3.5Z"/> <path class="cls-8" d="M305.5,82c-.89,5.01,5.18,5.49,3.5,11-.15.49-2.17-2.05-1.5,9.25.09.35,1.42.74,1.5.75l-4,11.5c-2.1.56-23.72,2.67-30.5,3.5-.16-.54.33-1.38.75-1.5,2.22-.65,18.29-1.23,24-2.5,2.21-1.24.75-5.2.75-5.5.08-8.48-1.07-17.03-1.5-25.5,2.32-.29,4.68-.72,7-1Z"/> <path class="cls-18" d="M274.5,118c-20.6,2.53-41.31,4.25-61.75,8l-2.25-.75c-1.29-2.37-1.42-4.04-1.5-4.25l91-12.5c0,.3,1.46,4.26-.75,5.5-5.71,1.27-21.78,1.85-24,2.5-.42.12-.91.96-.75,1.5Z"/> <path class="cls-15" d="M270.5,86.5c-4.66.6-9.32,1.38-14,2,.75-2.8,1.34-4.43,1-7.5-.01-.11,1.19-.78,0-2.25-3.82-4.73-15.93-2.3-14,11.25-.08.01-.92.96-1.25,1-3.8.51-8.59.51-12.25,1,6.93-25.43,32.09-36.82,40.5-5.5Z"/> <path class="cls-6" d="M257.5,81c-5.33-7.29-14.07-.35-11.5,8.5-.73.1-1.65.39-2.5.5-1.93-13.55,10.18-15.98,14-11.25,1.19,1.47-.01,2.14,0,2.25Z"/> <path class="cls-12" d="M206,104.5c.11,1.58.79,8.21,1,9.5l-36,4.75c-4.24,38.56-8,77.17-12,115.75-2.39,1.01-.11,7.16-3,8.75-2.62,7.72-6.58,37.28-7.5,39.5-.31.76-1.29.85-2,.75,5.53-48.23,11.2-96.49,16.5-144.75.62-5.62.38-12.47,1-18,.29-2.62,1.61-7.88,2-10.75l40-5.5Z"/> <path class="cls-14" d="M159,234.5c-3.08,29.67-6.14,59.31-9,89-2.89-1.92-1.32,8.39-1.5,9.75-.05.4-.95.1-1,.5-.3,2.48-.15,5.58-.5,8-.06.4-.94.1-1,.5-.24,1.64.74,2.87.5,4.5-.06.4-.94.1-1,.5-.31,2.15.52,2.37.5,2.5-.06.4-.94.1-1,.5-1.14,7.57-2.79,16.61-2.5,24-2.1,2.94-3.52-.71-6,.25.04-.32-.04-.68,0-1,4.11-29.87,6.56-60.04,10-90,.71.1,1.69,0,2-.75.92-2.22,4.88-31.78,7.5-39.5,2.89-1.59.61-7.74,3-8.75Z"/> <path class="cls-14" d="M335,322.5c-2.41,26.83-4.7,53.68-7.25,80.5l-193.75-11.5c.03-.16-.03-.34,0-.5.94-5.45,1.74-11.03,2.5-16.5,2.48-.96,3.9,2.69,6-.25-.29-7.39,1.36-16.43,2.5-24,.06-.4.94-.1,1-.5.02-.13-.81-.35-.5-2.5.06-.4.94-.1,1-.5.24-1.63-.74-2.86-.5-4.5.06-.4.94-.1,1-.5.35-2.42.2-5.52.5-8,.05-.4.95-.1,1-.5.18-1.36-1.39-11.67,1.5-9.75-1.11,11.52-5.49,47.5-5.5,52.25,0,2.13-.41,4.46.75,5.25l173.5,9c5.33-39.77,7.7-80,11.25-120,.74.12,2.13,4.6,2,5.75-4.04,4.48.89,10.21,3,5,.2-.5,1.92-13.33,3.5-7.5.65,2.4-5.16,42.52-3.5,49.25Z"/> <path class="cls-14" d="M353,87.5c-4.88,78.42-10.98,156.75-18,235-1.66-6.73,4.15-46.85,3.5-49.25-1.58-5.83-3.3,7-3.5,7.5-2.11,5.21-7.04-.52-3-5,.13-1.15-1.26-5.63-2-5.75l15-172.25c-10.92.74-21.68,2.77-32.5,4.25-.32.04-.68-.04-1,0l-1.5-9c12.25-.94,29.8-5.48,43-5.5Z"/> <path class="cls-5" d="M309,93c.33-.01.67.03,1,0l1.5,9c-.52.07-2.23,1.02-2.5,1-.08,0-1.41-.4-1.5-.75-.67-11.3,1.35-8.76,1.5-9.25Z"/> <path class="cls-11" d="M312.5,102c-2.09,4.13-2.93,11.29-7.5,12.5l4-11.5c.27.02,1.98-.93,2.5-1,.32-.04.68.04,1,0Z"/> <path class="cls-1" d="M330,270c-3.55,40-5.92,80.23-11.25,120l-173.5-9c-1.16-.79-.75-3.12-.75-5.25.01-4.75,4.39-40.73,5.5-52.25,2.86-29.69,5.92-59.33,9-89,4-38.58,7.76-77.19,12-115.75l36-4.75c.21,1.3,1.44,5.49,2,7,.08.21.21,1.88,1.5,4.25l2.25.75c20.44-3.75,41.15-5.47,61.75-8,6.78-.83,28.4-2.94,30.5-3.5,4.57-1.21,5.41-8.37,7.5-12.5,10.82-1.48,21.58-3.51,32.5-4.25l-15,172.25Z"/> <path class="cls-16" d="M199.5,341c-.05.05.03.59,0,1-1.37-.22-11.16.81-9-1.75.4-.48,8.14-.64,9,.75Z"/> <path class="cls-10" d="M213.25,163c6.05-.98,3.59,1.79-2.25.75,1.25-.09,2.13-.73,2.25-.75Z"/> <path class="cls-9" d="M201,342.5s.3-.17.5.5c.91,3.05-1.85,5.6,2.75,7,4.96,1.51,49.05,2.09,59,2l1.25-7-.5-.5c2.2-16.26,2.67-32.67,4-49,.01-.17-.01-.33,0-.5,1.15-14.18,2.41-28.31,3.5-42.5.01-.17-.01-.33,0-.5,1.13-14.75,2.91-29.49,4-44.25-.33-.49-2.76-.21-3.5-.25v-1c1.16-.22,2.59.57,3.5-.75l3.75-46.75c.22.3.72.59.75.75.42,2.3-4.07,39.78-4,46.5h8l-8,1-3.5,44,7.5,1-7.5,1-3.5,41.5,5.5.5-5.5.5c-.79,15.92-3.33,31.84-3.25,47.75,10.22-.34,10.35,1.47,0,1-1.69.75.45,7.5-2.5,8.5-2.85.96-57.17-1.48-60-2.5-3.91-1.41-2.81-4.74-2.25-8Z"/> <path class="cls-9" d="M216,167c-.06.48.1,1.05,0,1.5-2.96,13.4-2.42,27.45-3.5,41-.01.17.01.33,0,.5-1.1,13.9-2.92,27.84-4,41.75-.03.4,1,.2,1,.25-.03.33.01.67,0,1-.31-.04-.99.64-1,.75-1.09,14.2-2.04,28.51-2.5,42.75-.01.17.01.33,0,.5-.04.54-.99,1.65-1,1.75-1.06,13.84-1.46,27.74-3.5,41.5l.75,1.75c20.52,1.94,41.14,2.69,61.75,2.5l.5.5c-21.03.54-42.02-.73-63-2-.2-.67-.46-.46-.5-.5-.4-.4-.98-.41-1.5-.5.03-.41-.05-.95,0-1,.06-.06,1.13.15,1.5-.75.98-2.38,2.59-35.3,3.5-42.5l-8-1,8.5-1,3-42c-.8-1.61-18.87-.66,0-2l3-41c-16.81,1.81-15.39-.22.5-1.5.22-14.04,2.32-27.96,2.5-40.5,1.51-.56.33-.91,2-1.75Z"/> <path class="cls-9" d="M288.25,154c6.04-.4,6.86,1.23,2,2-2.78.44-5.35-.68-7.5-.5-21.78,1.83-43.53,5.28-65.25,7.75,23.21-5.16,47.28-5.41,70.75-9.25Z"/> <path class="cls-17" d="M216,168.5c.1-.45-.06-1.02,0-1.5.71-.36,15.04-2.35,15.75-2,.81.39,1.02,2.19.75,2.75-.78,1.6-14.21.34-16.5.75Z"/> <path class="cls-4" d="M272,207.5c-12.34-.75-43.37,3.25-59.5,2.5.01-.17-.01-.33,0-.5,14.35-1.23,49.48-1.07,59.5-3v1Z"/> <path class="cls-2" d="M259.75,181.5c.94-.42,11.29-.97,9.25,3.25-.53,1.1-8.83.94-9.25.75-1.11-.49-1.11-3.51,0-4Z"/> <path class="cls-17" d="m223.75 178c6.43-2.07 8 3.87 4.5 5-6.43 2.07-8-3.87-4.5-5z"/> <path class="cls-2" d="M258.75,177.5c2.41-1.05,17.1.41,10,3-2.81,1.03-15.16-.75-10-3Z"/> <path class="cls-3" d="M271.5,252.5c-1.09,14.19-2.35,28.32-3.5,42.5-20.66,1.43-41.3,1.74-62,1.5.46-14.24,1.41-28.55,2.5-42.75,0-.11.69-.79,1-.75l62-.5Z"/> <path class="cls-3" d="M272,207.5c.74.04,3.17-.24,3.5.25-1.09,14.76-2.87,29.5-4,44.25h-62c0-.05-1.03.15-1-.25,1.08-13.91,2.9-27.85,4-41.75,16.13.75,47.16-3.25,59.5-2.5Z"/> <path class="cls-13" d="M271.5,252c-.01.17.01.33,0,.5l-62,.5c.01-.33-.03-.67,0-1h62Z"/> <path class="cls-3" d="M264.5,345l-1.25,7c-9.95.09-54.04-.49-59-2-4.6-1.4-1.84-3.95-2.75-7,20.98,1.27,41.97,2.54,63,2Z"/> <path class="cls-3" d="M268,295.5c-1.33,16.33-1.8,32.74-4,49-20.61.19-41.23-.56-61.75-2.5l-.75-1.75c2.04-13.76,2.44-27.66,3.5-41.5,0-.1.96-1.21,1-1.75,20.65,1.31,41.39-.18,62-1.5Z"/> <path class="cls-4" d="M268,295c-.01.17.01.33,0,.5-20.61,1.32-41.35,2.81-62,1.5.01-.17-.01-.33,0-.5,20.7.24,41.34-.07,62-1.5Z"/> <path class="cls-2" d="m245.75 319c6.25-2.34 20.73 2.43 12.5 5-7.14 2.23-19.31-2.45-12.5-5z"/> <path class="cls-2" d="m251.75 313.5c6.86-2.21 12.93 3.42 7 5-8.7 2.31-11.06-3.69-7-5z"/> </svg>