<svg width="360" height="360" viewBox="0 0 360 360" fill="none" xmlns="http://www.w3.org/2000/svg">
<path d="M237.6 201.294H237.492H237.6ZM87.3 253.8C87.984 253.908 91.728 254.088 91.728 253.44C91.728 253.062 91.044 253.08 91.044 253.08C91.134 250.2 94.788 249.48 97.398 250.992C98.1174 251.406 98.7825 251.908 99.378 252.486C95.688 252.684 90.792 255.204 91.116 258.858C91.3021 259.811 91.7016 260.709 92.2846 261.485C92.8675 262.262 93.6188 262.896 94.482 263.34C95.561 264.147 96.7899 264.732 98.0971 265.06C99.4044 265.387 100.764 265.451 102.096 265.248C104.469 264.643 106.556 263.23 108 261.252C111.263 261.356 114.455 260.29 117 258.246C117.107 258.161 117.196 258.055 117.261 257.934C117.326 257.813 117.366 257.681 117.378 257.544C117.378 256.914 117.378 256.95 113.778 252.954C113.676 252.84 113.548 252.753 113.406 252.699C113.263 252.644 113.109 252.625 112.957 252.643C112.806 252.661 112.66 252.714 112.534 252.8C112.407 252.885 112.303 253 112.23 253.134C112.168 253.212 112.114 253.297 112.068 253.386C111.782 253.923 111.32 254.345 110.759 254.581C110.199 254.817 109.574 254.853 108.99 254.682C107.19 254.16 104.868 249.39 100.638 246.546C96.948 244.062 91.998 243.324 88.506 246.276C87.0031 247.566 85.9345 249.288 85.446 251.208C85.2517 251.8 85.2903 252.444 85.554 253.008C86.0268 253.466 86.6439 253.746 87.3 253.8V253.8ZM94.068 260.478C93.5745 260.125 93.2319 259.6 93.1085 259.006C92.9851 258.412 93.0899 257.794 93.402 257.274C94.2002 256.171 95.3096 255.331 96.588 254.862C95.5567 256.611 94.712 258.463 94.068 260.388V260.478ZM111.024 257.634C111.456 256.338 111.024 256.788 111.744 256.464C112.29 256.192 112.783 255.827 113.202 255.384L114.84 257.328C113.484 258.188 111.984 258.798 110.412 259.128C110.592 258.66 110.88 257.94 111.024 257.544V257.634ZM104.508 253.044C106.218 255.186 107.64 257.094 110.25 256.878C109.878 257.653 109.576 258.46 109.35 259.29C108.036 259.38 107.856 259.074 107.334 259.29C106.308 259.686 104.616 263.376 100.512 263.358C100.767 262.787 100.931 262.18 100.998 261.558C102.159 261.323 103.246 260.811 104.166 260.064C104.56 259.722 104.816 259.249 104.886 258.732C104.886 258.102 104.67 257.292 103.338 256.23C103.834 255.179 104.226 254.082 104.508 252.954V253.044ZM98.46 259.848C96.876 259.002 99.576 257.508 101.322 257.562C101.723 257.565 102.115 257.681 102.453 257.898C102.791 258.115 103.06 258.423 103.23 258.786C102.99 259.173 102.673 259.507 102.298 259.767C101.924 260.028 101.501 260.209 101.054 260.3C100.608 260.391 100.147 260.39 99.7013 260.297C99.2552 260.203 98.8328 260.02 98.46 259.758V259.848ZM100.584 248.832C101.806 249.871 102.916 251.035 103.896 252.306C103.326 253.345 102.891 254.452 102.6 255.6C101.844 255.383 101.051 255.324 100.27 255.426C99.49 255.528 98.739 255.789 98.064 256.194C94.77 257.994 95.544 261.936 100.116 261.486C99.8473 262.004 99.6476 262.554 99.522 263.124C97.6967 262.76 95.9898 261.95 94.554 260.766C95.83 258.783 96.8236 256.633 97.506 254.376C98.2058 254.054 98.9628 253.876 99.7325 253.851C100.502 253.827 101.269 253.956 101.988 254.232L102.366 252.81L101.97 252.63C101.124 252.054 100.746 251.604 99.774 250.83C100.135 250.173 100.407 249.471 100.584 248.742V248.832ZM93.6 245.952C95.8526 245.993 98.0337 246.75 99.828 248.112C99.5057 248.846 99.2643 249.612 99.108 250.398C98.2452 249.721 97.2273 249.269 96.1463 249.084C95.0653 248.898 93.9551 248.985 92.916 249.336C93.2958 248.244 93.5259 247.106 93.6 245.952V245.952ZM89.478 247.356C90.4758 246.579 91.6751 246.105 92.934 245.988C92.3755 247.198 92.0285 248.495 91.908 249.822C91.3717 250.144 90.9327 250.605 90.6379 251.156C90.3431 251.708 90.2035 252.329 90.234 252.954C88.9728 253.023 87.7108 252.834 86.526 252.396C86.7938 250.397 87.8421 248.585 89.442 247.356H89.478ZM62.586 244.35C59.346 242.946 52.146 247.104 50.832 249.336C50.6419 249.828 50.6419 250.374 50.832 250.866C51.966 255.168 62.55 270.36 64.512 272.718C64.854 273.15 65.322 272.556 65.016 272.052C64.08 270.504 64.188 273.618 68.976 258.12C69.4195 257.946 69.8327 257.703 70.2 257.4C70.367 257.215 70.4594 256.974 70.4594 256.725C70.4594 256.476 70.367 256.235 70.2 256.05C70.0366 255.848 69.8492 255.667 69.642 255.51L70.776 251.316L75.276 253.8C74.366 256.075 73.7022 258.44 73.296 260.856C71.4812 261.51 69.7804 262.446 68.256 263.628C67.194 264.798 68.868 266.958 69.912 268.254C70.956 269.55 71.838 270.432 72.036 270.63C72.234 270.828 72.864 270.63 72.81 270.306C72.6957 270.045 72.5441 269.803 72.36 269.586C71.3847 268.068 70.5473 266.465 69.858 264.798C71.257 263.961 72.7339 263.262 74.268 262.71C74.826 262.512 76.554 261.972 77.022 262.26C79.3313 263.476 81.74 264.494 84.222 265.302C84.3223 265.35 84.4374 265.356 84.542 265.319C84.6467 265.281 84.7323 265.204 84.78 265.104C84.8277 265.004 84.8337 264.889 84.7966 264.784C84.7594 264.679 84.6823 264.594 84.582 264.546L81.468 262.656C82.1309 261.153 82.556 259.556 82.728 257.922L90.414 262.08C90.882 262.35 91.242 261.612 90.9 261.414C90.558 261.216 67.23 246.384 62.586 244.35V244.35ZM59.85 246.258C60.4781 246.069 61.1479 246.069 61.776 246.258C62.19 246.438 63.198 246.978 64.566 247.734C64.1045 249.008 63.7905 250.331 63.63 251.676C62.424 250.992 61.704 250.47 60.75 250.632C60.23 250.748 59.7436 250.982 59.328 251.316C59.508 249.912 59.67 248.832 59.85 246.258V246.258ZM52.65 250.218C54.5168 248.438 56.7816 247.13 59.256 246.402C58.2954 250.648 57.6218 254.954 57.24 259.29C55.4249 256.415 53.8937 253.371 52.668 250.2L52.65 250.218ZM60.822 265.356C59.832 263.718 58.752 261.9 57.726 260.118C58.338 257.544 58.536 256.356 58.914 253.926C59.8989 255.634 61.0376 257.249 62.316 258.75C61.5903 260.893 61.0955 263.108 60.84 265.356H60.822ZM63.972 270.54C63.324 269.514 62.496 268.128 61.416 266.346C62.0993 264.088 62.5516 261.766 62.766 259.416C63.162 260.37 66.69 259.002 67.644 258.642C66.942 260.856 64.494 268.56 63.99 270.54H63.972ZM63.432 258.858C62.3165 256.927 61.3303 254.925 60.48 252.864L61.038 252.558C61.29 252.702 67.446 256.338 67.896 256.626C66.4932 257.518 65.0036 258.266 63.45 258.858H63.432ZM68.832 254.898C67.482 253.998 65.646 252.9 64.242 252.09C64.7224 250.816 65.037 249.485 65.178 248.13L70.29 251.01C70.2 251.694 69.588 253.098 68.94 254.898H68.832ZM80.748 262.098L77.976 260.424C76.7443 259.938 75.3737 259.938 74.142 260.424C74.8396 258.32 75.3457 256.157 75.654 253.962L82.17 257.562C81.5043 259.03 81.0614 260.589 80.856 262.188L80.748 262.098Z" fill="black"/>
<path d="M349.83 268.506C346.914 241.362 321.786 199.62 306.774 176.814C315.156 177.485 323.569 177.695 331.974 177.444C334.368 177.444 340.632 177.012 341.838 176.778C342.54 176.634 342.648 175.968 341.586 175.932C340.524 175.896 332.964 175.536 331.938 175.518H313.632C310.824 175.626 306.432 175.878 306.18 175.878C300.78 167.652 297.018 162.504 296.982 162.486C296.941 162.444 296.891 162.411 296.836 162.39C296.781 162.369 296.722 162.36 296.663 162.364C296.604 162.367 296.547 162.383 296.495 162.41C296.442 162.438 296.397 162.476 296.361 162.523C296.324 162.569 296.298 162.623 296.285 162.68C296.271 162.737 296.27 162.797 296.281 162.855C296.292 162.913 296.315 162.968 296.349 163.016C296.383 163.064 296.427 163.104 296.478 163.134C297.306 163.8 333.684 216.954 344.808 253.566C349.218 268.092 351.828 286.326 337.608 291.366C303.84 303.426 39.3659 307.35 14.3639 293.166C10.8899 291.204 10.0799 287.118 10.7639 281.61C11.8259 273.96 15.9479 263.61 20.9159 252.018C26.5139 257.418 72.9539 300.06 80.4779 298.458C88.0019 296.856 130.32 277.2 132.066 273.438C133.08 270.825 133.617 268.051 133.65 265.248C133.863 264.955 133.962 264.594 133.929 264.233C133.896 263.872 133.733 263.536 133.47 263.286C130.68 260.514 75.3299 216.63 71.7659 216.756C69.2819 216.864 64.7819 219.42 62.6399 220.68C61.9454 219.544 60.9114 218.654 59.6841 218.138C58.4567 217.621 57.098 217.503 55.7999 217.8C54.576 218.294 53.48 219.06 52.5946 220.039C51.7092 221.018 51.0573 222.185 50.6879 223.452C50.7081 223.549 50.7612 223.637 50.8382 223.699C50.9153 223.762 51.0116 223.796 51.1109 223.796C51.2102 223.796 51.3066 223.762 51.3836 223.699C51.4607 223.637 51.5137 223.549 51.5339 223.452C52.6166 221.621 54.3328 220.251 56.3579 219.6C57.1999 219.471 58.0613 219.583 58.842 219.924C59.6226 220.265 60.2905 220.82 60.7679 221.526L40.7519 230.076C39.6891 228.983 38.3623 228.184 36.8999 227.754C33.4799 226.854 31.1759 229.104 29.8079 232.398C29.7778 232.493 29.7813 232.595 29.8178 232.687C29.8542 232.78 29.9215 232.857 30.0082 232.906C30.0949 232.954 30.1958 232.972 30.2937 232.954C30.3917 232.937 30.4807 232.887 30.5459 232.812C32.8499 229.482 35.5139 228.348 38.6999 231.012C34.8479 232.722 29.4659 235.152 25.6859 237.024C25.9559 236.592 64.7999 166.248 64.7999 166.068C66.5099 162.9 69.9479 157.23 73.4939 156.492C75.0967 156.143 76.7315 155.962 78.3719 155.952C75.8699 160.092 55.5659 193.752 55.5299 198.504C55.5299 203.904 56.4659 203.058 59.3459 203.904C62.2259 204.75 223.38 203.76 223.668 203.76C226.458 203.76 237.366 203.4 238.374 202.662C241.506 200.358 240.804 196.92 239.436 193.302C239.112 192.438 237.474 188.856 235.278 184.068C244.728 181.224 251.838 184.842 252.486 200.268C253.134 213.606 247.878 217.674 237.816 217.098C229.734 216.63 224.154 214.254 222.39 217.404C220.41 220.914 225.882 228.798 228.258 232.074C227.916 232.074 212.85 231.768 209.052 231.606C203.7 231.399 198.341 231.465 192.996 231.804C189.315 231.885 185.655 232.386 182.088 233.298C180.738 233.964 178.992 237.438 178.254 238.896C176.796 241.758 170.154 259.722 168.318 264.906C167.238 267.894 163.584 277.794 166.032 279.54C165.942 281.466 166.248 284.04 167.94 284.94C169.632 285.84 192.888 286.488 194.67 286.524C197.82 286.614 229.662 287.028 249.984 286.128C270.306 285.228 279.18 283.284 278.658 283.338C279.174 283.186 279.638 282.893 279.997 282.493C280.356 282.092 280.597 281.6 280.692 281.07C280.969 279.74 280.882 278.359 280.44 277.074C282.708 272.664 265.554 236.052 260.802 233.478C260.521 233.32 260.206 233.233 259.884 233.226C258.93 233.226 237.582 232.326 229.284 232.056C227.484 229.518 221.634 219.96 223.884 217.926C227.304 214.938 255.87 229.914 254.34 200.106C253.548 186.624 247.338 178.722 234.738 183.294C233.64 180.918 224.424 161.226 221.958 155.988C231.511 156.56 241.095 156.349 250.614 155.358C250.751 157.038 251.234 158.671 252.033 160.155C252.832 161.639 253.93 162.941 255.258 163.98C262.458 169.38 291.114 168.57 296.316 161.964C297.774 159.97 298.781 157.684 299.269 155.263C299.757 152.842 299.714 150.345 299.142 147.942C299.621 147.637 299.992 147.19 300.204 146.664C300.492 146.106 300.204 145.404 298.962 145.152C297.36 144.912 295.739 144.816 294.12 144.864C294.12 143.388 294.21 140.634 294.12 137.502C294.282 137.394 295.452 135.99 295.578 135.828C297.012 134.152 298.145 132.239 298.926 130.176C299.52 128.502 299.754 126.576 298.188 125.64C295.776 124.326 294.084 126.738 293.274 129.438C292.518 125.28 290.772 119.178 286.596 119.79C279.504 120.87 284.4 138.06 286.704 144.864C284.68 144.579 282.626 144.579 280.602 144.864C282.852 139.212 284.004 131.904 278.226 130.806C277.35 130.612 276.436 130.68 275.598 130.999C274.76 131.319 274.034 131.878 273.51 132.606C273.394 132.199 273.177 131.827 272.879 131.527C272.581 131.226 272.211 131.006 271.804 130.887C271.398 130.769 270.968 130.755 270.555 130.848C270.141 130.941 269.759 131.137 269.442 131.418C266.796 133.326 268.308 137.7 271.386 139.14C271.224 140.99 271.224 142.852 271.386 144.702C269.47 144.47 267.53 144.513 265.626 144.828C265.519 140.433 265.037 136.055 264.186 131.742C265.28 130.964 266.2 129.967 266.888 128.814C267.576 127.661 268.016 126.378 268.182 125.046C268.434 122.652 267.588 120.654 265.59 120.132C263.088 119.484 261.612 121.23 261.18 123.732C258.966 120.672 254.628 119.574 252.522 123.084C245.772 116.064 242.514 119.988 244.224 123.084C245.502 125.46 248.832 126.792 251.424 127.53C251.424 131.562 253.224 134.964 255.456 138.438C256.95 140.778 258.624 143.028 259.92 144.684C257.119 144.594 254.316 144.775 251.55 145.224C249.858 145.674 249.588 146.898 251.154 147.78C250.659 149.89 250.477 152.061 250.614 154.224C240.945 153.709 231.25 153.938 221.616 154.908C221.004 153.594 219.186 149.76 218.97 149.31C218.754 148.86 220.482 143.64 222.912 95.112C234.072 94.176 284.256 95.292 288.864 93.51C289.128 93.4151 289.362 93.2518 289.542 93.0368C289.723 92.8217 289.843 92.5626 289.89 92.286C291.42 87.264 292.464 44.1 289.89 40.086C289.26 39.096 287.01 38.79 285.768 38.61C269.73 36.27 202.806 37.278 199.368 39.096C195.93 40.914 197.388 58.662 198.036 62.19C163.278 61.074 83.0159 63.252 75.4559 66.078C73.6559 66.726 72.9899 69.192 72.6299 71.046C69.6419 86.472 78.0299 136.116 80.8379 151.452C80.6579 151.452 80.8379 151.452 78.6419 154.872C76.7832 154.734 74.9145 154.831 73.0799 155.16C68.9759 155.79 65.1959 161.46 63.1079 164.988C63.0179 165.168 57.7079 173.988 56.9159 175.428C52.3979 174.726 31.3919 174.996 28.7279 175.14C26.0639 175.284 23.3279 175.482 20.9159 175.662C20.4839 175.662 20.4479 176.49 20.9159 176.508C25.9559 176.814 27.8099 176.922 31.7159 176.976C41.2739 177.12 55.3679 177.516 55.8179 177.462C54.8819 179.1 41.0219 203.76 39.1679 207.252C31.1039 222.372 24.7679 236.214 24.3899 237.384C22.2975 238.335 20.3322 239.545 18.5399 240.984C17.9618 242.57 17.6162 244.231 17.5139 245.916C17.4239 248.814 18.4679 249.516 20.0699 251.136C15.7713 260.346 12.2374 269.894 9.5039 279.684C8.61151 283.645 8.57469 287.75 9.3959 291.726C10.1309 295.701 11.5046 299.53 13.4639 303.066C14.344 303.96 15.4845 304.552 16.7219 304.758C21.4559 306.09 36.1259 307.8 41.0399 308.358C40.6695 310.557 40.5667 312.794 40.7339 315.018C40.7388 317.31 41.0721 319.589 41.7239 321.786C41.7298 321.84 41.7464 321.893 41.7726 321.941C41.7989 321.989 41.8344 322.031 41.877 322.066C41.9196 322.1 41.9686 322.125 42.021 322.141C42.0735 322.156 42.1285 322.161 42.1829 322.155C42.2373 322.149 42.2899 322.132 42.3379 322.106C42.3859 322.08 42.4282 322.045 42.4625 322.002C42.4967 321.959 42.5223 321.91 42.5376 321.858C42.553 321.805 42.5578 321.75 42.5519 321.696C42.8399 319.452 42.9182 317.186 42.7859 314.928C42.7741 312.754 42.5266 310.587 42.0479 308.466C44.5319 308.682 46.9259 308.862 49.0139 308.934C48.6819 311.035 48.5913 313.167 48.7439 315.288C48.75 317.58 49.0834 319.859 49.7339 322.056C49.7339 322.166 49.7775 322.271 49.8552 322.349C49.9328 322.426 50.0381 322.47 50.1479 322.47C50.2577 322.47 50.363 322.426 50.4406 322.349C50.5183 322.271 50.5619 322.166 50.5619 322.056C50.8596 319.813 50.944 317.547 50.8139 315.288C50.8016 313.186 50.5601 311.092 50.0939 309.042C54.1079 309.132 113.184 314.442 215.208 312.426C242.55 311.886 275.418 310.626 302.49 307.656C302.133 309.827 302.03 312.032 302.184 314.226C302.193 316.513 302.532 318.786 303.192 320.976C303.179 321.036 303.18 321.099 303.194 321.159C303.209 321.219 303.236 321.275 303.275 321.322C303.314 321.37 303.363 321.409 303.419 321.436C303.474 321.462 303.535 321.476 303.597 321.476C303.659 321.476 303.719 321.462 303.775 321.436C303.831 321.409 303.88 321.37 303.919 321.322C303.957 321.275 303.985 321.219 303.999 321.159C304.014 321.099 304.015 321.036 304.002 320.976C304.316 318.734 304.401 316.467 304.254 314.208C304.234 311.985 303.975 309.77 303.48 307.602C305.478 307.386 310.104 306.81 310.5 306.756C310.146 308.915 310.049 311.108 310.212 313.29C310.213 315.582 310.546 317.862 311.202 320.058C311.214 320.168 311.269 320.268 311.355 320.338C311.441 320.407 311.551 320.439 311.661 320.427C311.771 320.415 311.871 320.36 311.94 320.274C312.01 320.188 312.042 320.078 312.03 319.968C312.326 317.731 312.405 315.47 312.264 313.218C312.252 311 311.993 308.79 311.49 306.63C319.608 305.532 344.43 302.184 347.814 295.254C351.81 287.352 351.486 277.074 349.83 268.506V268.506ZM186.03 239.526C186.228 239.04 192.258 237.726 198.846 239.526C198.906 239.513 198.969 239.514 199.029 239.528C199.089 239.543 199.144 239.571 199.192 239.609C199.24 239.648 199.279 239.697 199.305 239.753C199.332 239.808 199.346 239.869 199.346 239.931C199.346 239.993 199.332 240.054 199.305 240.109C199.279 240.165 199.24 240.214 199.192 240.253C199.144 240.291 199.089 240.319 199.029 240.333C198.969 240.348 198.906 240.349 198.846 240.336C195.565 240.919 192.216 241.004 188.91 240.588C187.362 240.336 185.4 240.318 185.976 239.526H186.03ZM278.568 282.33C261.918 285.498 169.938 284.778 168.552 284.13C167.166 283.482 167.04 281.394 167.004 280.026C176.976 283.266 274.41 280.764 279.828 277.902C280.116 279.486 280.188 282.024 278.514 282.33H278.568ZM243.63 239.724C243.63 239.112 247.59 238.77 247.77 238.752C250.124 238.571 252.489 238.571 254.844 238.752C256.158 238.896 257.976 239.076 257.832 239.634C257.688 240.192 254.97 240.426 254.502 240.498C252.743 240.66 250.976 240.732 249.21 240.714C248.022 240.678 243.504 240.462 243.576 239.724H243.63ZM266.76 245.718C271.263 254.299 275.044 263.24 278.064 272.448C278.448 273.611 278.66 274.824 278.694 276.048C270.576 278.568 177.012 281.16 167.544 278.442C167.094 278.316 166.968 278.442 166.86 277.686C166.176 272.79 174.186 253.332 176.04 248.796C210.096 247.662 266.4 245.916 266.706 245.718H266.76ZM251.604 126.72C249.635 125.639 247.849 124.254 246.312 122.616C245.61 121.554 245.772 120.816 247.842 121.824C249.138 122.418 250.956 123.48 252.18 124.218C251.865 125.019 251.671 125.862 251.604 126.72ZM294.804 129.942C296.244 127.35 297.666 126.612 297.522 128.142C296.748 130.88 295.648 133.515 294.246 135.99C294.138 134.19 294.012 132.984 293.868 131.796C293.94 131.544 294.3 130.788 294.75 129.942H294.804ZM287.154 145.602C287.514 146.628 287.748 147.24 287.766 147.276C287.786 147.327 287.816 147.374 287.854 147.413C287.891 147.452 287.937 147.484 287.987 147.506C288.037 147.527 288.091 147.539 288.146 147.54C288.201 147.54 288.255 147.53 288.306 147.51C289.098 147.204 287.928 146.466 286.056 135.612C285.498 132.372 283.842 122.382 287.118 121.914C289.782 121.518 291.222 128.124 291.726 130.734C292.66 135.765 293.261 140.852 293.526 145.962C293.525 146.062 293.559 146.158 293.624 146.235C293.688 146.311 293.778 146.361 293.876 146.376C293.975 146.392 294.075 146.371 294.16 146.318C294.244 146.265 294.307 146.183 294.336 146.088C294.342 145.986 294.342 145.884 294.336 145.782C295.963 145.83 297.581 146.053 299.16 146.448C298.959 146.683 298.706 146.867 298.422 146.988C294.642 148.932 283.212 148.554 279.27 148.482C279.81 147.402 280.188 146.574 280.602 145.584C282.753 145.938 284.947 145.944 287.1 145.602H287.154ZM273.114 141.66C273.528 138.06 274.446 132.318 278.082 133.002C281.718 133.686 280.8 138.96 280.008 142.488C279.52 144.512 278.919 146.507 278.208 148.464H272.808C272.764 146.193 272.849 143.921 273.06 141.66H273.114ZM270.828 133.2C270.912 133.12 271.011 133.059 271.12 133.02C271.229 132.981 271.345 132.965 271.46 132.974C271.575 132.982 271.687 133.015 271.789 133.069C271.891 133.124 271.981 133.199 272.052 133.29C272.339 133.577 272.598 133.89 272.826 134.226C272.315 135.374 271.957 136.584 271.764 137.826C270.828 136.53 269.622 134.172 270.828 133.2ZM265.158 122.256C267.498 122.994 265.662 129.15 264.096 131.022C263.663 129.085 263.017 127.201 262.17 125.406C262.692 123.822 263.574 121.752 265.158 122.238V122.256ZM260.73 145.8C261.612 146.916 262.188 147.6 262.188 147.6C262.259 147.671 262.354 147.713 262.454 147.719C262.555 147.725 262.654 147.694 262.733 147.632C262.812 147.57 262.866 147.482 262.885 147.383C262.904 147.285 262.887 147.183 262.836 147.096C262.836 147.096 259.65 142.56 257.022 137.862C255.042 134.262 253.152 130.662 253.674 126.684C254.088 123.552 255.744 122.22 258.534 124.038C262.566 126.63 264.402 142.614 264.978 147.438C264.984 147.564 265.028 147.686 265.105 147.786C265.183 147.885 265.289 147.959 265.41 147.996C265.896 147.996 265.824 147.474 265.806 147.222C265.788 146.97 265.806 145.71 265.806 145.584C267.718 145.826 269.654 145.826 271.566 145.584C271.674 146.898 271.8 147.924 271.89 148.464C265.5 148.464 257.778 148.896 252.486 146.826C255.206 146.288 257.961 145.945 260.73 145.8V145.8ZM252.108 148.446C254.741 149.466 257.516 150.073 260.334 150.246C263.52 150.534 285.21 150.57 287.676 150.444C291.394 150.383 295.076 149.695 298.566 148.41C298.901 150.62 298.775 152.876 298.195 155.035C297.616 157.194 296.596 159.21 295.2 160.956C290.826 166.086 263.16 167.256 256.518 162.576C252.144 159.57 251.352 153.558 252.108 148.428V148.446ZM237.6 201.294C237.978 202.5 66.3479 202.554 66.1679 202.536C58.9679 202.536 60.7679 202.536 58.3559 201.942C57.7079 201.798 57.5819 201.798 57.4559 201.168C57.3032 200.18 57.261 199.178 57.3299 198.18C57.3676 198.254 57.4286 198.313 57.5034 198.349C57.5782 198.385 57.6627 198.395 57.7439 198.378C57.7439 198.378 237.546 195.93 238.716 195.894C239.202 198 239.274 199.962 237.6 201.294ZM288.234 92.052C288.234 92.052 288.342 91.872 288.378 91.926C288.414 91.98 288.234 92.034 288.144 92.052H288.234ZM198.72 46.656C198.72 45.486 199.188 41.058 200.232 40.518C202.608 39.33 278.118 38.322 288.432 41.544C290.232 45.324 289.656 87.786 288.144 92.052C279.288 93.438 234.72 93.33 223.128 94.518C223.83 80.352 224.136 68.418 223.56 66.096C223.449 65.7932 223.269 65.5202 223.035 65.2985C222.801 65.0767 222.518 64.9123 222.21 64.818C218.268 63.108 203.436 62.622 199.116 62.478C198.555 57.2234 198.423 51.932 198.72 46.656V46.656ZM74.2499 91.98C73.9799 88.2 72.6479 69.12 76.2479 67.788C78.0479 67.158 84.3839 66.528 93.5819 65.988C111.204 64.89 138.978 64.008 164.25 63.828C169.866 63.828 217.314 63.414 221.958 66.6C223.326 72.828 218.952 142.02 217.98 148.698C175.446 150.084 125.046 152.172 82.1519 151.128C81.4319 147.006 75.9239 115.2 74.2499 91.98V91.98ZM81.5939 152.334C81.5973 152.292 81.5973 152.25 81.5939 152.208C111.924 153.144 206.838 150.03 218.394 149.958C219.672 152.928 237.618 192.744 238.374 194.958C238.176 194.958 57.5999 197.406 57.3659 197.586C59.6339 189.99 78.3899 157.878 81.5939 152.334V152.334ZM131.076 272.934C129.744 275.526 89.3879 293.562 81.0899 296.064C81.2508 295.234 81.3113 294.388 81.2699 293.544C93.5279 289.296 120.132 278.082 132.066 270.144C131.839 271.113 131.507 272.055 131.076 272.952V272.934ZM132.318 268.956C128.718 271.08 125.28 272.556 81.2519 292.572C81.2536 291.757 81.1446 290.946 80.9279 290.16C86.6879 287.46 125.748 272.322 132.714 266.292C132.624 267.066 132.498 268.002 132.318 268.974V268.956ZM39.5999 232.02C40.4655 233.04 41.0012 234.298 41.1362 235.628C41.2711 236.959 40.9991 238.299 40.3559 239.472C40.0679 239.922 40.7519 240.39 41.0399 239.922C42.1266 238.738 42.769 237.213 42.8576 235.608C42.9462 234.003 42.4756 232.417 41.5259 231.12C50.2739 227.106 58.8779 223.326 61.2359 222.3C61.8258 223.498 62.1416 224.813 62.1603 226.149C62.1789 227.484 61.9001 228.808 61.3439 230.022C61.1279 230.598 61.7759 230.814 62.0819 230.436C63.0719 229.178 63.688 227.667 63.8599 226.076C64.0318 224.484 63.7525 222.876 63.0539 221.436C64.9979 220.338 69.5339 217.836 71.7479 217.836C74.5199 217.836 130.77 263.592 131.814 264.636C127.116 269.478 83.5019 286.74 79.8299 288.504C72.0899 286.704 24.8579 246.078 20.4299 241.902C23.1839 239.616 36.5039 233.46 39.5999 232.02V232.02ZM19.0619 242.73C24.6779 248.22 71.5319 289.116 79.3799 290.412C79.2224 291.09 79.1499 291.786 79.1639 292.482C66.5639 286.326 30.5639 255.15 18.6479 245.124C18.7019 245.124 18.9719 243.36 19.1159 242.73H19.0619ZM19.3319 248.904C18.8242 248.131 18.5723 247.218 18.6119 246.294C30.3839 258.174 63.6119 287.388 79.1459 293.472C79.1139 294.435 79.2107 295.397 79.4339 296.334C70.1999 294.264 20.5559 250.38 19.3859 248.904H19.3319ZM346.932 294.66C335.304 317.736 19.7639 311.706 14.6519 302.706C12.485 298.939 11.0212 294.81 10.3319 290.52C11.0263 292.041 12.1861 293.301 13.6439 294.12C40.1399 309.546 303.75 305.514 338.166 293.148C345.456 290.52 349.128 284.85 349.956 276.948C350.444 283.015 349.392 289.108 346.896 294.66H346.932Z" fill="black"/>
<path d="M77.4001 172.242C204.678 174.042 216.828 172.944 220.392 172.386C221.238 172.26 221.778 171.972 221.742 170.982C221.742 168.372 215.622 156.402 214.002 155.574C213.282 155.196 84.4021 157.014 83.9521 157.158C83.8682 157.178 83.7896 157.216 83.7213 157.269C83.6531 157.321 83.5968 157.388 83.5561 157.464C82.3321 159.462 76.3561 169.326 76.6261 171.558C76.6553 171.744 76.7486 171.915 76.8899 172.039C77.0312 172.164 77.2116 172.236 77.4001 172.242V172.242ZM84.4741 158.4C85.7701 158.238 212.562 156.978 213.336 157.05C214.68 158.983 215.883 161.01 216.936 163.116C213.984 163.116 82.0441 163.818 81.3601 163.836C82.1521 162.252 83.1961 160.452 84.4741 158.4V158.4ZM80.8741 164.7C81.5761 164.7 215.082 164.016 217.368 163.962C218.553 166.168 219.488 168.498 220.158 170.91C213.75 171.936 155.358 171.432 78.0481 170.91C78.7704 168.73 79.7049 166.626 80.8381 164.628L80.8741 164.7ZM176.742 178.362C176.383 177.567 175.796 176.897 175.056 176.435C174.316 175.974 173.456 175.743 172.584 175.77C168.012 175.77 129.618 174.708 126.162 176.112C123.956 178.785 122.249 181.834 121.122 185.112C121.014 185.904 121.41 186.264 121.896 186.318C132.696 187.488 168.498 188.604 177.786 186.894C178.938 186.678 179.082 185.454 178.848 184.284C178.291 182.262 177.587 180.282 176.742 178.362V178.362ZM122.4 185.112C123.434 182.191 124.837 179.415 126.576 176.85C129.312 175.95 164.898 177.822 172.638 177.804C173.099 177.788 173.555 177.904 173.951 178.141C174.347 178.377 174.666 178.723 174.87 179.136C175.745 181.006 176.427 182.96 176.904 184.968C167.778 186.39 129.024 185.58 122.4 185.112V185.112ZM301.752 180.666C299.214 177.174 286.488 177.336 282.222 177.462C278.622 177.462 265.536 178.056 265.536 181.584C265.551 181.87 265.634 182.148 265.778 182.395C265.922 182.643 266.123 182.852 266.364 183.006C266.706 183.276 264.348 207 267.588 219.726C268.65 223.938 270.018 226.026 274.032 227.772C281.736 231.12 294.516 230.382 299.646 223.236C300.672 221.148 300.456 215.064 300.546 213.21C308.52 214.794 315.054 211.554 316.746 202.968C317.808 197.442 316.44 193.824 314.082 191.628C312.507 190.345 310.644 189.463 308.654 189.055C306.664 188.648 304.605 188.728 302.652 189.288C302.584 189.311 302.511 189.317 302.44 189.307C302.369 189.296 302.302 189.268 302.243 189.226C302.185 189.183 302.138 189.128 302.106 189.063C302.073 188.999 302.057 188.928 302.058 188.856C302.058 187.902 302.4 181.44 301.752 180.666V180.666ZM267.552 181.044C272.412 178.2 292.212 177.984 298.602 180.882C298.818 180.99 299.628 181.404 299.628 181.584C299.628 181.764 298.8 182.196 298.602 182.286C293.778 184.464 276.552 185.454 267.498 182.142C266.868 181.8 267.498 181.116 267.498 181.044H267.552ZM303.156 191.124C304.792 190.653 306.518 190.585 308.185 190.927C309.853 191.268 311.413 192.009 312.732 193.086C314.676 194.886 315.648 197.982 314.748 202.572C314.569 204.168 314.016 205.699 313.134 207.04C312.252 208.382 311.066 209.497 309.672 210.294C306.72 211.623 303.396 211.877 300.276 211.014C300.123 210.958 299.96 210.935 299.797 210.945C299.634 210.955 299.475 210.999 299.33 211.073C299.184 211.147 299.056 211.251 298.953 211.377C298.849 211.503 298.773 211.649 298.728 211.806C298.242 213.174 298.926 218.7 297.936 222.192C293.382 228.366 281.736 228.924 274.842 226.026C271.35 224.532 270.378 222.984 269.442 219.258C267.03 210.42 266.886 192.42 267.426 183.564C273.096 186.246 292.734 187.02 300.456 183.06C300.456 188.64 299.772 189.576 301.176 190.71C301.448 190.915 301.761 191.058 302.093 191.13C302.426 191.201 302.77 191.199 303.102 191.124H303.156ZM128.304 229.266C123.577 225.257 118.491 221.69 113.112 218.61C111.04 217.387 108.836 216.403 106.542 215.676C104.616 215.172 103.806 216.162 104.202 217.476C105.013 219.363 106.086 221.126 107.388 222.714C111.53 227.957 116.293 232.677 121.572 236.772C129.6 243.486 140.004 251.622 147.6 257.4C147.987 257.683 148.427 257.886 148.893 257.996C149.359 258.107 149.843 258.123 150.316 258.044C150.789 257.966 151.241 257.793 151.646 257.537C152.052 257.281 152.402 256.947 152.676 256.554C154.008 255.096 154.836 252.54 153.342 251.154C151.614 249.606 141.048 239.652 128.304 229.266V229.266ZM111.06 225.27L108.594 221.292C109.472 220.927 110.214 220.298 110.718 219.492L114.624 221.076C113.644 221.27 112.758 221.791 112.111 222.552C111.464 223.314 111.094 224.271 111.06 225.27V225.27ZM116.586 229.86C115.285 228.765 114.081 227.561 112.986 226.26C113.112 224.082 113.796 223.11 115.974 223.038C117.425 223.731 118.795 224.583 120.06 225.576C119.092 225.812 118.228 226.359 117.601 227.132C116.973 227.906 116.617 228.864 116.586 229.86V229.86ZM147.366 256.05C145.368 254.376 118.8 231.84 117.162 230.4C117.299 229.392 117.74 228.45 118.424 227.698C119.109 226.946 120.006 226.419 120.996 226.188C127.206 230.796 136.134 238.428 151.704 251.388C151.098 251.357 150.492 251.459 149.93 251.687C149.368 251.916 148.862 252.264 148.449 252.708C148.035 253.152 147.724 253.682 147.537 254.259C147.35 254.837 147.292 255.448 147.366 256.05V256.05ZM289.998 275.994C292.248 277.524 293.814 276.822 295.272 274.698C298.872 269.586 311.472 246.96 311.472 246.78C311.472 246.6 311.616 246.942 311.022 239.67C310.996 239.397 310.898 239.135 310.736 238.913C310.574 238.691 310.356 238.517 310.104 238.408C309.852 238.299 309.575 238.261 309.303 238.296C309.03 238.331 308.772 238.439 308.556 238.608L302.4 243.09C302.4 243.09 288.738 271.332 288.594 271.584C288.347 272.374 288.349 273.222 288.6 274.011C288.852 274.8 289.34 275.492 289.998 275.994V275.994ZM309.06 240.804C309.168 242.118 309.312 243.864 309.42 245.07C308.083 244.43 306.684 243.929 305.244 243.576L309.06 240.804ZM303.912 244.8C305.472 245.906 307.274 246.622 309.168 246.888C308.898 247.356 295.146 272.448 295.002 272.7C294.584 271.85 293.897 271.161 293.047 270.741C292.198 270.321 291.234 270.194 290.304 270.378C291.708 267.768 303.408 245.7 303.912 244.8V244.8Z" fill="black"/>
<path d="M295.632 209.106C295.438 208.834 295.191 208.603 294.907 208.426C294.623 208.25 294.306 208.132 293.976 208.08C292.911 207.795 291.828 207.579 290.736 207.432C291.348 211.716 291.708 216.432 291.69 216.846C291.662 217.12 291.528 217.372 291.316 217.547C291.103 217.723 290.83 217.807 290.556 217.782C290.28 217.75 290.028 217.612 289.853 217.397C289.678 217.181 289.594 216.906 289.62 216.63C289.62 216.324 289.512 215.082 289.422 207.252C285.822 206.802 268.488 205.452 269.172 208.908C269.172 209.088 267.75 217.908 273.258 222.138C278.766 226.368 289.782 225.54 293.634 221.238C294.727 219.928 295.448 218.349 295.722 216.666C296.147 214.161 296.116 211.6 295.632 209.106V209.106ZM299.952 192.816C299.952 193.626 298.872 199.818 298.152 208.134L299.016 208.314C302.183 208.986 305.482 208.627 308.43 207.288C309.458 206.717 310.309 205.874 310.89 204.852C311.471 203.83 311.759 202.667 311.724 201.492C311.846 200.031 311.592 198.563 310.986 197.228C310.38 195.893 309.442 194.735 308.262 193.865C307.081 192.995 305.698 192.442 304.243 192.259C302.789 192.075 301.311 192.267 299.952 192.816V192.816ZM300.762 193.428C301.911 193.246 303.085 193.313 304.206 193.623C305.327 193.934 306.368 194.481 307.26 195.228C308.116 196.013 308.779 196.985 309.197 198.069C309.615 199.152 309.778 200.317 309.672 201.474C309.51 206.1 304.758 206.982 300.204 206.514C300.42 203.238 300.6 199.476 300.762 193.428V193.428ZM126.54 176.85C126.54 176.85 126.558 176.868 126.54 176.85V176.85ZM281.484 87.7679C281.479 88.0885 281.538 88.4069 281.657 88.7047C281.776 89.0025 281.952 89.2739 282.176 89.5031C282.401 89.7323 282.668 89.9149 282.963 90.0404C283.258 90.1658 283.575 90.2316 283.896 90.2339C284.386 90.2446 284.868 90.1092 285.28 89.8448C285.693 89.5804 286.017 89.1992 286.212 88.7496C286.407 88.3001 286.464 87.8026 286.375 87.3208C286.286 86.8389 286.055 86.3945 285.713 86.0442C285.37 85.6939 284.931 85.4536 284.451 85.354C283.971 85.2544 283.473 85.2999 283.019 85.4849C282.565 85.6699 282.177 85.9858 281.903 86.3924C281.63 86.799 281.484 87.2779 281.484 87.7679V87.7679ZM84.4738 147.15C84.8878 147.96 85.4278 148.05 85.7698 147.798C86.1118 147.546 200.106 146.556 208.584 146.106C210.407 146.134 212.225 145.904 213.984 145.422C218.034 141.822 219.618 74.5199 218.034 71.4059C213.984 63.3239 87.2278 68.5259 79.4338 70.8839C73.2238 72.7559 81.6118 141.408 84.4738 147.15V147.15ZM79.0918 73.7999C79.0918 73.4759 79.4878 72.2159 79.7938 72.1259C88.4158 69.5339 213.606 65.2679 217.008 72.0359C217.298 73.3901 217.431 74.7732 217.404 76.1579C217.71 84.0059 217.404 100.818 216.594 115.884C216.432 118.764 215.154 142.362 213.282 144.504C205.812 146.088 90.7018 146.448 85.5898 146.646C82.6738 139.878 76.3738 85.6799 79.0918 73.7999ZM284.13 48.0779C284.619 48.0886 285.1 47.9536 285.512 47.69C285.925 47.4264 286.249 47.0462 286.444 46.5977C286.64 46.1492 286.697 45.6527 286.61 45.1714C286.522 44.69 286.294 44.2456 285.953 43.8946C285.612 43.5436 285.175 43.3019 284.696 43.2003C284.217 43.0986 283.72 43.1417 283.265 43.3238C282.811 43.506 282.422 43.8191 282.146 44.2234C281.871 44.6276 281.722 45.1047 281.718 45.5939C281.711 45.916 281.768 46.2363 281.885 46.5362C282.003 46.8361 282.179 47.1096 282.404 47.3408C282.628 47.5719 282.897 47.7561 283.193 47.8827C283.489 48.0092 283.808 48.0756 284.13 48.0779V48.0779Z" fill="black"/>
<path d="M114.318 119.16H135.702C138.176 119.15 140.546 118.16 142.291 116.405C144.035 114.65 145.013 112.275 145.008 109.8V92.448C145.008 89.9681 144.032 87.588 142.29 85.8227C140.548 84.0574 138.181 83.0491 135.702 83.016H114.318C113.078 83.0112 111.849 83.2519 110.703 83.7243C109.556 84.1966 108.515 84.8912 107.638 85.7679C106.761 86.6447 106.066 87.6864 105.594 88.8329C105.122 89.9794 104.881 91.208 104.886 92.448V109.8C104.891 111.034 105.138 112.255 105.615 113.393C106.091 114.531 106.787 115.564 107.663 116.433C108.539 117.303 109.578 117.991 110.719 118.459C111.861 118.926 113.084 119.165 114.318 119.16ZM106.416 92.448C106.449 90.3675 107.293 88.3822 108.77 86.9159C110.246 85.4496 112.237 84.6185 114.318 84.6H135.702C136.753 84.5881 137.795 84.7845 138.77 85.1779C139.744 85.5713 140.631 86.1538 141.379 86.8918C142.128 87.6299 142.722 88.5089 143.129 89.478C143.535 90.4471 143.745 91.4871 143.748 92.538V109.8C143.743 110.852 143.531 111.893 143.124 112.863C142.717 113.833 142.123 114.713 141.376 115.453C140.629 116.194 139.743 116.78 138.77 117.178C137.796 117.576 136.754 117.779 135.702 117.774H114.318C113.275 117.769 112.244 117.559 111.283 117.156C110.322 116.753 109.449 116.164 108.715 115.424C107.982 114.683 107.401 113.805 107.006 112.84C106.612 111.876 106.411 110.842 106.416 109.8V92.448ZM172.134 132.012C172.494 133.074 173.394 132.84 173.646 132.174C173.988 131.22 175.986 124.362 176.238 123.174C177.624 122.742 173.718 124.092 185.796 119.7C185.921 119.651 186.029 119.566 186.105 119.455C186.181 119.345 186.221 119.213 186.221 119.079C186.221 118.945 186.181 118.813 186.105 118.703C186.029 118.592 185.921 118.507 185.796 118.458L167.292 111.06C167.178 111.006 167.052 110.983 166.927 110.993C166.802 111.003 166.681 111.046 166.577 111.117C166.474 111.188 166.39 111.285 166.336 111.398C166.281 111.511 166.257 111.637 166.266 111.762C166.266 111.762 171.144 129.15 172.134 132.012V132.012ZM168.12 112.986L183.708 119.124C181.62 119.898 178.092 121.23 176.4 121.914C175.644 122.202 175.338 122.328 175.158 122.562C174.978 122.796 175.608 121.392 172.962 129.546L168.12 112.986ZM210.6 60.21C210.621 60.318 210.679 60.415 210.765 60.4841C210.851 60.5533 210.958 60.59 211.068 60.588C211.446 60.588 223.092 61.704 225.468 61.074C226.998 60.66 227.268 57.96 227.412 56.376C227.592 53.982 227.412 48.114 226.404 46.116C225.036 43.416 214.938 44.316 212.004 44.838C211.225 44.9476 210.481 45.2305 209.826 45.666C209.444 46.1086 209.223 46.6664 209.196 47.25C209.178 51.6089 209.649 55.956 210.6 60.21V60.21ZM211.122 47.052C213.966 46.17 222.066 45.828 224.64 47.052C225.522 49.392 225.99 57.438 224.928 59.31C223.254 59.742 213.03 59.742 211.32 59.76C211.266 58.356 210.438 50.778 211.122 47.052ZM234.756 60.138C234.78 60.2444 234.839 60.3395 234.924 60.4081C235.009 60.4767 235.115 60.5147 235.224 60.516C235.602 60.516 247.248 61.632 249.624 61.002C251.154 60.588 251.424 57.888 251.586 56.304C251.748 53.91 251.586 48.042 250.56 46.044C249.192 43.326 239.094 44.244 236.16 44.766C235.383 44.883 234.64 45.1653 233.982 45.594C233.608 46.0414 233.388 46.5964 233.352 47.178C233.335 51.5368 233.806 55.8839 234.756 60.138V60.138ZM235.278 46.98C238.122 46.08 246.222 45.756 248.796 46.98C249.678 49.32 250.146 57.366 249.084 59.22C247.41 59.67 237.186 59.67 235.476 59.688C235.422 58.284 234.594 50.706 235.278 46.98V46.98ZM260.028 60.93C260.049 61.0379 260.107 61.135 260.193 61.2041C260.279 61.2733 260.386 61.31 260.496 61.308C260.874 61.308 272.52 62.424 274.896 61.794C276.426 61.38 276.696 58.68 276.84 57.096C277.02 54.702 276.84 48.834 275.832 46.836C274.464 44.136 264.366 45.036 261.432 45.558C260.654 45.6722 259.911 45.9548 259.254 46.386C258.872 46.8286 258.651 47.3864 258.624 47.97C258.606 52.3289 259.077 56.676 260.028 60.93V60.93ZM260.55 47.772C263.394 46.89 271.494 46.548 274.068 47.772C274.95 50.112 275.418 58.158 274.356 60.03C272.682 60.462 262.458 60.462 260.748 60.48C260.694 59.076 259.866 51.498 260.55 47.772V47.772ZM234.918 87.822C235.044 88.182 235.332 88.218 235.386 88.2C235.782 88.2 247.41 89.316 249.786 88.686C251.316 88.272 251.586 85.572 251.748 83.988C251.91 81.594 251.748 75.726 250.74 73.746C249.354 71.028 239.256 71.946 236.34 72.45C235.556 72.5617 234.806 72.8443 234.144 73.278C233.767 73.7303 233.546 74.2921 233.514 74.88C233.497 79.2329 233.968 83.574 234.918 87.822V87.822ZM235.458 74.664C238.302 73.782 246.384 73.44 248.958 74.664C249.84 77.004 250.308 85.05 249.246 86.922C247.572 87.354 237.366 87.354 235.656 87.372C235.584 85.968 234.756 78.39 235.458 74.664V74.664ZM277.002 73.008C279.882 68.76 282.402 64.926 282.492 64.746C282.582 64.566 281.268 62.946 280.494 64.098C274.986 72.576 275.742 71.766 275.346 71.622C272.178 70.47 261.954 70.866 260.352 72.36C259.272 73.368 259.686 77.022 259.812 78.588C258.66 77.94 257.778 77.472 257.454 77.346C256.626 77.022 256.68 77.832 257.13 78.12L259.938 79.92C260.165 82.2855 260.532 84.6356 261.036 86.958C261.053 87.0676 261.111 87.1669 261.197 87.2367C261.284 87.3065 261.393 87.3418 261.504 87.336C261.882 87.336 273.528 88.452 275.904 87.822C279 86.958 278.046 75.6 277.002 73.008V73.008ZM261.558 73.746C265.792 72.7825 270.179 72.7028 274.446 73.512L268.2 83.358C267.57 82.998 264.204 81.018 261.396 79.434C261.277 77.555 261.332 75.6691 261.558 73.8V73.746ZM275.364 85.986C273.672 86.436 263.466 86.436 261.756 86.454C261.756 85.734 261.486 83.376 261.36 80.766L268.2 85.014C268.373 85.0329 268.547 85.0023 268.703 84.9259C268.86 84.8494 268.991 84.7301 269.082 84.582C269.658 83.844 272.556 79.632 275.508 75.294C276.066 78.534 276.246 84.438 275.4 85.986H275.364ZM203.796 47.484C204.284 47.4911 204.764 47.353 205.174 47.0872C205.583 46.8214 205.905 46.4399 206.098 45.991C206.29 45.5421 206.346 45.0461 206.256 44.5659C206.166 44.0857 205.936 43.643 205.595 43.2938C205.253 42.9446 204.815 42.7047 204.337 42.6046C203.859 42.5045 203.362 42.5486 202.909 42.7314C202.456 42.9142 202.068 43.2273 201.793 43.6312C201.518 44.0351 201.369 44.5115 201.366 45C201.366 45.6495 201.62 46.2733 202.074 46.7376C202.528 47.2019 203.146 47.4699 203.796 47.484V47.484Z" fill="black"/>
</svg>
